<mxfile host="app.diagrams.net" modified="2023-11-09T04:23:02.292Z" agent="Mozilla/5.0 (Windows NT 10.0; Win64; x64) AppleWebKit/537.36 (KHTML, like Gecko) Chrome/118.0.0.0 Safari/537.36 Edg/118.0.2088.76" etag="jYvzm94NZWupRK1ENa7z" version="22.1.0" type="google">
  <diagram name="Page-1" id="CJ83a1PTFfsY8K9rLCNt">
    <mxGraphModel grid="1" page="1" gridSize="10" guides="1" tooltips="1" connect="1" arrows="1" fold="1" pageScale="1" pageWidth="500" pageHeight="400" math="0" shadow="0">
      <root>
        <mxCell id="0" />
        <mxCell id="1" parent="0" />
        <mxCell id="RatI7mB8CrtjW91dFqf3-1" value="&lt;font face=&quot;Arial&quot; data-font-src=&quot;https://fonts.googleapis.com/css?family=Ariel&quot;&gt;Player&lt;/font&gt;" style="shape=umlActor;verticalLabelPosition=bottom;verticalAlign=top;html=1;outlineConnect=0;" vertex="1" parent="1">
          <mxGeometry x="25" y="185" width="40" height="80" as="geometry" />
        </mxCell>
        <mxCell id="RatI7mB8CrtjW91dFqf3-6" value="" style="rounded=0;whiteSpace=wrap;html=1;" vertex="1" parent="1">
          <mxGeometry x="100" y="40" width="380" height="320" as="geometry" />
        </mxCell>
        <mxCell id="RatI7mB8CrtjW91dFqf3-7" value="&lt;font data-font-src=&quot;https://fonts.googleapis.com/css?family=Ariel&quot; face=&quot;Arial&quot;&gt;Game&lt;/font&gt;" style="text;strokeColor=none;fillColor=none;html=1;fontSize=24;fontStyle=1;verticalAlign=middle;align=center;" vertex="1" parent="1">
          <mxGeometry x="240" y="40" width="100" height="40" as="geometry" />
        </mxCell>
        <mxCell id="RatI7mB8CrtjW91dFqf3-8" value="&lt;font face=&quot;Arial&quot;&gt;View Menu&lt;/font&gt;" style="ellipse;whiteSpace=wrap;html=1;" vertex="1" parent="1">
          <mxGeometry x="120" y="210" width="90" height="30" as="geometry" />
        </mxCell>
        <mxCell id="RatI7mB8CrtjW91dFqf3-9" value="&lt;font face=&quot;Arial&quot;&gt;Select Level&lt;/font&gt;" style="ellipse;whiteSpace=wrap;html=1;" vertex="1" parent="1">
          <mxGeometry x="370" y="150" width="90" height="30" as="geometry" />
        </mxCell>
        <mxCell id="RatI7mB8CrtjW91dFqf3-10" value="&lt;font face=&quot;Arial&quot;&gt;Read Instructions&lt;/font&gt;" style="ellipse;whiteSpace=wrap;html=1;" vertex="1" parent="1">
          <mxGeometry x="330" y="220" width="120" height="30" as="geometry" />
        </mxCell>
        <mxCell id="RatI7mB8CrtjW91dFqf3-11" value="&lt;font face=&quot;Arial&quot;&gt;Input Answer&lt;/font&gt;" style="ellipse;whiteSpace=wrap;html=1;" vertex="1" parent="1">
          <mxGeometry x="370" y="60" width="90" height="30" as="geometry" />
        </mxCell>
        <mxCell id="RatI7mB8CrtjW91dFqf3-12" value="&lt;font face=&quot;Arial&quot;&gt;View High Scores&lt;/font&gt;" style="ellipse;whiteSpace=wrap;html=1;" vertex="1" parent="1">
          <mxGeometry x="130" y="310" width="120" height="30" as="geometry" />
        </mxCell>
        <mxCell id="RatI7mB8CrtjW91dFqf3-13" value="&lt;font face=&quot;Arial&quot;&gt;Fire Cannon&lt;/font&gt;" style="ellipse;whiteSpace=wrap;html=1;" vertex="1" parent="1">
          <mxGeometry x="230" y="90" width="80" height="30" as="geometry" />
        </mxCell>
        <mxCell id="RatI7mB8CrtjW91dFqf3-14" value="&lt;font face=&quot;Arial&quot;&gt;Read About&lt;/font&gt;" style="ellipse;whiteSpace=wrap;html=1;" vertex="1" parent="1">
          <mxGeometry x="290" y="280" width="90" height="30" as="geometry" />
        </mxCell>
        <mxCell id="RatI7mB8CrtjW91dFqf3-15" value="&lt;font face=&quot;Arial&quot;&gt;Play Level&lt;/font&gt;" style="ellipse;whiteSpace=wrap;html=1;" vertex="1" parent="1">
          <mxGeometry x="130" y="140" width="70" height="30" as="geometry" />
        </mxCell>
        <mxCell id="RatI7mB8CrtjW91dFqf3-19" value="" style="endArrow=classic;html=1;rounded=0;exitX=0;exitY=0.5;exitDx=0;exitDy=0;entryX=1;entryY=0.5;entryDx=0;entryDy=0;" edge="1" parent="1" source="RatI7mB8CrtjW91dFqf3-10" target="RatI7mB8CrtjW91dFqf3-8">
          <mxGeometry width="50" height="50" relative="1" as="geometry">
            <mxPoint x="300" y="230" as="sourcePoint" />
            <mxPoint x="350" y="180" as="targetPoint" />
          </mxGeometry>
        </mxCell>
        <mxCell id="RatI7mB8CrtjW91dFqf3-21" value="&lt;font data-font-src=&quot;https://fonts.googleapis.com/css?family=Ariel&quot; face=&quot;Arial&quot;&gt;Extends&lt;/font&gt;" style="edgeLabel;html=1;align=center;verticalAlign=middle;resizable=0;points=[];" connectable="0" vertex="1" parent="RatI7mB8CrtjW91dFqf3-19">
          <mxGeometry x="-0.1058" relative="1" as="geometry">
            <mxPoint as="offset" />
          </mxGeometry>
        </mxCell>
        <mxCell id="RatI7mB8CrtjW91dFqf3-22" value="" style="endArrow=classic;html=1;rounded=0;exitX=0;exitY=1;exitDx=0;exitDy=0;entryX=1;entryY=0;entryDx=0;entryDy=0;" edge="1" parent="1" source="RatI7mB8CrtjW91dFqf3-9" target="RatI7mB8CrtjW91dFqf3-8">
          <mxGeometry width="50" height="50" relative="1" as="geometry">
            <mxPoint x="355" y="205" as="sourcePoint" />
            <mxPoint x="205" y="195" as="targetPoint" />
          </mxGeometry>
        </mxCell>
        <mxCell id="RatI7mB8CrtjW91dFqf3-23" value="&lt;font data-font-src=&quot;https://fonts.googleapis.com/css?family=Ariel&quot; face=&quot;Arial&quot;&gt;Extends&lt;/font&gt;" style="edgeLabel;html=1;align=center;verticalAlign=middle;resizable=0;points=[];" connectable="0" vertex="1" parent="RatI7mB8CrtjW91dFqf3-22">
          <mxGeometry x="-0.1058" relative="1" as="geometry">
            <mxPoint as="offset" />
          </mxGeometry>
        </mxCell>
        <mxCell id="RatI7mB8CrtjW91dFqf3-24" value="" style="endArrow=classic;html=1;rounded=0;exitX=0.5;exitY=0;exitDx=0;exitDy=0;entryX=0.5;entryY=1;entryDx=0;entryDy=0;" edge="1" parent="1" source="RatI7mB8CrtjW91dFqf3-12" target="RatI7mB8CrtjW91dFqf3-8">
          <mxGeometry width="50" height="50" relative="1" as="geometry">
            <mxPoint x="350" y="255" as="sourcePoint" />
            <mxPoint x="200" y="245" as="targetPoint" />
          </mxGeometry>
        </mxCell>
        <mxCell id="RatI7mB8CrtjW91dFqf3-25" value="&lt;font data-font-src=&quot;https://fonts.googleapis.com/css?family=Ariel&quot; face=&quot;Arial&quot;&gt;Extends&lt;/font&gt;" style="edgeLabel;html=1;align=center;verticalAlign=middle;resizable=0;points=[];" connectable="0" vertex="1" parent="RatI7mB8CrtjW91dFqf3-24">
          <mxGeometry x="-0.1058" relative="1" as="geometry">
            <mxPoint as="offset" />
          </mxGeometry>
        </mxCell>
        <mxCell id="RatI7mB8CrtjW91dFqf3-27" value="" style="endArrow=classic;html=1;rounded=0;exitX=0;exitY=0;exitDx=0;exitDy=0;entryX=1;entryY=1;entryDx=0;entryDy=0;" edge="1" parent="1" source="RatI7mB8CrtjW91dFqf3-14" target="RatI7mB8CrtjW91dFqf3-8">
          <mxGeometry width="50" height="50" relative="1" as="geometry">
            <mxPoint x="360" y="265" as="sourcePoint" />
            <mxPoint x="210" y="255" as="targetPoint" />
          </mxGeometry>
        </mxCell>
        <mxCell id="RatI7mB8CrtjW91dFqf3-28" value="&lt;font data-font-src=&quot;https://fonts.googleapis.com/css?family=Ariel&quot; face=&quot;Arial&quot;&gt;Extends&lt;/font&gt;" style="edgeLabel;html=1;align=center;verticalAlign=middle;resizable=0;points=[];" connectable="0" vertex="1" parent="RatI7mB8CrtjW91dFqf3-27">
          <mxGeometry x="-0.1058" relative="1" as="geometry">
            <mxPoint as="offset" />
          </mxGeometry>
        </mxCell>
        <mxCell id="RatI7mB8CrtjW91dFqf3-29" value="" style="endArrow=classic;html=1;rounded=0;exitX=0.5;exitY=1;exitDx=0;exitDy=0;entryX=0.5;entryY=0;entryDx=0;entryDy=0;" edge="1" parent="1" source="RatI7mB8CrtjW91dFqf3-15" target="RatI7mB8CrtjW91dFqf3-8">
          <mxGeometry width="50" height="50" relative="1" as="geometry">
            <mxPoint x="370" y="275" as="sourcePoint" />
            <mxPoint x="220" y="265" as="targetPoint" />
          </mxGeometry>
        </mxCell>
        <mxCell id="RatI7mB8CrtjW91dFqf3-30" value="&lt;font data-font-src=&quot;https://fonts.googleapis.com/css?family=Ariel&quot; face=&quot;Arial&quot;&gt;Extends&lt;/font&gt;" style="edgeLabel;html=1;align=center;verticalAlign=middle;resizable=0;points=[];" connectable="0" vertex="1" parent="RatI7mB8CrtjW91dFqf3-29">
          <mxGeometry x="-0.1058" relative="1" as="geometry">
            <mxPoint as="offset" />
          </mxGeometry>
        </mxCell>
        <mxCell id="RatI7mB8CrtjW91dFqf3-31" value="" style="endArrow=classic;html=1;rounded=0;exitX=1;exitY=0;exitDx=0;exitDy=0;entryX=0;entryY=1;entryDx=0;entryDy=0;" edge="1" parent="1" source="RatI7mB8CrtjW91dFqf3-15" target="RatI7mB8CrtjW91dFqf3-13">
          <mxGeometry width="50" height="50" relative="1" as="geometry">
            <mxPoint x="660" y="265" as="sourcePoint" />
            <mxPoint x="510" y="255" as="targetPoint" />
          </mxGeometry>
        </mxCell>
        <mxCell id="RatI7mB8CrtjW91dFqf3-32" value="&lt;font data-font-src=&quot;https://fonts.googleapis.com/css?family=Ariel&quot; face=&quot;Arial&quot;&gt;Includes&lt;/font&gt;" style="edgeLabel;html=1;align=center;verticalAlign=middle;resizable=0;points=[];" connectable="0" vertex="1" parent="RatI7mB8CrtjW91dFqf3-31">
          <mxGeometry x="-0.1058" relative="1" as="geometry">
            <mxPoint as="offset" />
          </mxGeometry>
        </mxCell>
        <mxCell id="RatI7mB8CrtjW91dFqf3-33" value="" style="endArrow=classic;html=1;rounded=0;exitX=1;exitY=0;exitDx=0;exitDy=0;entryX=0;entryY=0.5;entryDx=0;entryDy=0;" edge="1" parent="1" source="RatI7mB8CrtjW91dFqf3-13" target="RatI7mB8CrtjW91dFqf3-11">
          <mxGeometry width="50" height="50" relative="1" as="geometry">
            <mxPoint x="205" y="150" as="sourcePoint" />
            <mxPoint x="262" y="126" as="targetPoint" />
          </mxGeometry>
        </mxCell>
        <mxCell id="RatI7mB8CrtjW91dFqf3-34" value="&lt;font data-font-src=&quot;https://fonts.googleapis.com/css?family=Ariel&quot; face=&quot;Arial&quot;&gt;Includes&lt;/font&gt;" style="edgeLabel;html=1;align=center;verticalAlign=middle;resizable=0;points=[];" connectable="0" vertex="1" parent="RatI7mB8CrtjW91dFqf3-33">
          <mxGeometry x="-0.1058" relative="1" as="geometry">
            <mxPoint as="offset" />
          </mxGeometry>
        </mxCell>
        <mxCell id="RatI7mB8CrtjW91dFqf3-35" value="" style="endArrow=classic;html=1;rounded=0;exitX=1;exitY=0.5;exitDx=0;exitDy=0;entryX=0;entryY=0.5;entryDx=0;entryDy=0;" edge="1" parent="1" source="RatI7mB8CrtjW91dFqf3-15" target="RatI7mB8CrtjW91dFqf3-9">
          <mxGeometry width="50" height="50" relative="1" as="geometry">
            <mxPoint x="215" y="160" as="sourcePoint" />
            <mxPoint x="272" y="136" as="targetPoint" />
          </mxGeometry>
        </mxCell>
        <mxCell id="RatI7mB8CrtjW91dFqf3-36" value="&lt;font data-font-src=&quot;https://fonts.googleapis.com/css?family=Ariel&quot; face=&quot;Arial&quot;&gt;Includes&lt;/font&gt;" style="edgeLabel;html=1;align=center;verticalAlign=middle;resizable=0;points=[];" connectable="0" vertex="1" parent="RatI7mB8CrtjW91dFqf3-35">
          <mxGeometry x="-0.1058" relative="1" as="geometry">
            <mxPoint as="offset" />
          </mxGeometry>
        </mxCell>
        <mxCell id="RatI7mB8CrtjW91dFqf3-39" value="" style="endArrow=none;html=1;rounded=0;entryX=0;entryY=0.5;entryDx=0;entryDy=0;" edge="1" parent="1" source="RatI7mB8CrtjW91dFqf3-1" target="RatI7mB8CrtjW91dFqf3-8">
          <mxGeometry width="50" height="50" relative="1" as="geometry">
            <mxPoint x="80" y="260" as="sourcePoint" />
            <mxPoint x="350" y="180" as="targetPoint" />
          </mxGeometry>
        </mxCell>
      </root>
    </mxGraphModel>
  </diagram>
</mxfile>
